HIERARCHY
ROOT Hips
{
  OFFSET 5.84602e-005 68.8428 3.50346
  CHANNELS 6 Xposition Yposition Zposition Zrotation Xrotation Yrotation
  JOINT Spine
  {
    OFFSET 0 8.597 -4.6522
    CHANNELS 3 Zrotation Xrotation Yrotation
    JOINT Spine1
    {
      OFFSET 0 7.8454 0.4098
      CHANNELS 3 Zrotation Xrotation Yrotation
      JOINT Spine2
      {
        OFFSET 0 9.7078 -2.1609
        CHANNELS 3 Zrotation Xrotation Yrotation
        JOINT Neck
        {
          OFFSET 0 21.8761 -0.4549
          CHANNELS 3 Zrotation Xrotation Yrotation
          JOINT Head
          {
            OFFSET 0 12.3537 3.3602
            CHANNELS 3 Zrotation Xrotation Yrotation
            End Site
            {
              OFFSET 0.0001 18.9506 0.5657
            }
          }
        }
        JOINT LeftShoulder
        {
          OFFSET 2.2086 21.1115 7.2329
          CHANNELS 3 Zrotation Xrotation Yrotation
          JOINT LeftArm
          {
            OFFSET 13.1193 3.0282 -4.8998
            CHANNELS 3 Zrotation Xrotation Yrotation
            JOINT LeftForeArm
            {
              OFFSET 27.4081 -0.0973053 -0.2375
              CHANNELS 3 Zrotation Xrotation Yrotation
              JOINT LeftHand
              {
                OFFSET 22.8641 0.0662994 -0.1369
                CHANNELS 3 Zrotation Xrotation Yrotation
                JOINT LeftHandIndex1
                {
                  OFFSET 8.8614 0.775009 2.4612
                  CHANNELS 3 Zrotation Xrotation Yrotation
                  JOINT LeftHandIndex2
                  {
                    OFFSET 3.3146 -0.808304 0.5841
                    CHANNELS 3 Zrotation Xrotation Yrotation
                    JOINT LeftHandIndex3
                    {
                      OFFSET 2.2628 -0.552002 0.3989
                      CHANNELS 3 Zrotation Xrotation Yrotation
                      End Site
                      {
                        OFFSET 1.6102 -0.4807 0.2612
                      }
                    }
                  }
                }
                JOINT LeftHandMiddle1
                {
                  OFFSET 8.9937 0.895004 0.2143
                  CHANNELS 3 Zrotation Xrotation Yrotation
                  JOINT LeftHandMiddle2
                  {
                    OFFSET 4.0984 0.0113983 -0.0242
                    CHANNELS 3 Zrotation Xrotation Yrotation
                    JOINT LeftHandMiddle3
                    {
                      OFFSET 2.2716 0.00689697 -0.0138001
                      CHANNELS 3 Zrotation Xrotation Yrotation
                      End Site
                      {
                        OFFSET 2.0404 -0.1441 0.0027
                      }
                    }
                  }
                }
                JOINT LeftHandRing1
                {
                  OFFSET 8.5234 0.597198 -2.0164
                  CHANNELS 3 Zrotation Xrotation Yrotation
                  JOINT LeftHandRing2
                  {
                    OFFSET 3.7188 -0.188293 -0.2328
                    CHANNELS 3 Zrotation Xrotation Yrotation
                    JOINT LeftHandRing3
                    {
                      OFFSET 2.1191 -0.106598 -0.1332
                      CHANNELS 3 Zrotation Xrotation Yrotation
                      End Site
                      {
                        OFFSET 1.8737 -0.2304 -0.0886
                      }
                    }
                  }
                }
                JOINT LeftHandPinky1
                {
                  OFFSET 7.9094 -0.601089 -3.4825
                  CHANNELS 3 Zrotation Xrotation Yrotation
                  JOINT LeftHandPinky2
                  {
                    OFFSET 2.2874 -0.477005 -0.6314
                    CHANNELS 3 Zrotation Xrotation Yrotation
                    JOINT LeftHandPinky3
                    {
                      OFFSET 1.6774 -0.349396 -0.4633
                      CHANNELS 3 Zrotation Xrotation Yrotation
                      End Site
                      {
                        OFFSET 1.4888 -0.4091 -0.3416
                      }
                    }
                  }
                }
                JOINT LeftHandThumb1
                {
                  OFFSET 1.833 -1.3875 1.3896
                  CHANNELS 3 Zrotation Xrotation Yrotation
                  JOINT LeftHandThumb2
                  {
                    OFFSET 3.4129 -1.121 2.5732
                    CHANNELS 3 Zrotation Xrotation Yrotation
                    JOINT LeftHandThumb3
                    {
                      OFFSET 2.2474 -0.804199 1.6192
                      CHANNELS 3 Zrotation Xrotation Yrotation
                      End Site
                      {
                        OFFSET 1.6527 -0.5689 1.1317
                      }
                    }
                  }
                }
              }
            }
          }
        }
        JOINT RightShoulder
        {
          OFFSET -2.2086 21.1115 7.2329
          CHANNELS 3 Zrotation Xrotation Yrotation
          JOINT RightArm
          {
            OFFSET -13.1216 3.0287 -4.9007
            CHANNELS 3 Zrotation Xrotation Yrotation
            JOINT RightForeArm
            {
              OFFSET -27.4081 -0.0973053 -0.2375
              CHANNELS 3 Zrotation Xrotation Yrotation
              JOINT RightHand
              {
                OFFSET -22.8641 0.0664063 -0.1369
                CHANNELS 3 Zrotation Xrotation Yrotation
                JOINT RightHandIndex1
                {
                  OFFSET -8.8614 0.774994 2.4612
                  CHANNELS 3 Zrotation Xrotation Yrotation
                  JOINT RightHandIndex2
                  {
                    OFFSET -3.3146 -0.808304 0.5841
                    CHANNELS 3 Zrotation Xrotation Yrotation
                    JOINT RightHandIndex3
                    {
                      OFFSET -2.2628 -0.552002 0.3989
                      CHANNELS 3 Zrotation Xrotation Yrotation
                      End Site
                      {
                        OFFSET -1.6102 -0.4807 0.2612
                      }
                    }
                  }
                }
                JOINT RightHandMiddle1
                {
                  OFFSET -8.9937 0.894989 0.2143
                  CHANNELS 3 Zrotation Xrotation Yrotation
                  JOINT RightHandMiddle2
                  {
                    OFFSET -4.0984 0.0113983 -0.0242
                    CHANNELS 3 Zrotation Xrotation Yrotation
                    JOINT RightHandMiddle3
                    {
                      OFFSET -2.2716 0.00691223 -0.0138001
                      CHANNELS 3 Zrotation Xrotation Yrotation
                      End Site
                      {
                        OFFSET -2.0404 -0.1441 0.0027
                      }
                    }
                  }
                }
                JOINT RightHandRing1
                {
                  OFFSET -8.5234 0.597198 -2.0164
                  CHANNELS 3 Zrotation Xrotation Yrotation
                  JOINT RightHandRing2
                  {
                    OFFSET -3.7188 -0.188309 -0.2328
                    CHANNELS 3 Zrotation Xrotation Yrotation
                    JOINT RightHandRing3
                    {
                      OFFSET -2.1191 -0.106598 -0.1332
                      CHANNELS 3 Zrotation Xrotation Yrotation
                      End Site
                      {
                        OFFSET -1.8737 -0.2304 -0.0886
                      }
                    }
                  }
                }
                JOINT RightHandPinky1
                {
                  OFFSET -7.9094 -0.601105 -3.4825
                  CHANNELS 3 Zrotation Xrotation Yrotation
                  JOINT RightHandPinky2
                  {
                    OFFSET -2.2874 -0.477005 -0.6314
                    CHANNELS 3 Zrotation Xrotation Yrotation
                    JOINT RightHandPinky3
                    {
                      OFFSET -1.6774 -0.349396 -0.4633
                      CHANNELS 3 Zrotation Xrotation Yrotation
                      End Site
                      {
                        OFFSET -1.4888 -0.4091 -0.3416
                      }
                    }
                  }
                }
                JOINT RightHandThumb1
                {
                  OFFSET -1.833 -1.38751 1.3896
                  CHANNELS 3 Zrotation Xrotation Yrotation
                  JOINT RightHandThumb2
                  {
                    OFFSET -3.41299 -1.12099 2.5732
                    CHANNELS 3 Zrotation Xrotation Yrotation
                    JOINT RightHandThumb3
                    {
                      OFFSET -2.24741 -0.804108 1.6192
                      CHANNELS 3 Zrotation Xrotation Yrotation
                      End Site
                      {
                        OFFSET -1.6527 -0.5689 1.1317
                      }
                    }
                  }
                }
              }
            }
          }
        }
      }
    }
  }
  JOINT RightUpLeg
  {
    OFFSET -9.1966 3.8861 -0.7581
    CHANNELS 3 Zrotation Xrotation Yrotation
    JOINT RightLeg
    {
      OFFSET -0.7359 -41.0265 0
      CHANNELS 3 Zrotation Xrotation Yrotation
      JOINT RightFoot
      {
        OFFSET 0 -40.2855 0
        CHANNELS 3 Zrotation Xrotation Yrotation
        JOINT RightToeBase
        {
          OFFSET 0 -5.6122 11.7359
          CHANNELS 3 Zrotation Xrotation Yrotation
          End Site
          {
            OFFSET 0 0 7.8731
          }
        }
      }
    }
  }
  JOINT LeftUpLeg
  {
    OFFSET 9.1965 3.8864 -0.7581
    CHANNELS 3 Zrotation Xrotation Yrotation
    JOINT LeftLeg
    {
      OFFSET 0.7359 -41.0268 0
      CHANNELS 3 Zrotation Xrotation Yrotation
      JOINT LeftFoot
      {
        OFFSET 0 -40.2855 0
        CHANNELS 3 Zrotation Xrotation Yrotation
        JOINT LeftToeBase
        {
          OFFSET 0 -5.6122 11.7359
          CHANNELS 3 Zrotation Xrotation Yrotation
          End Site
          {
            OFFSET 0 0 7.8731
          }
        }
      }
    }
  }
}
MOTION
Frames:	4
Frame Time:	0.0333333
5.84602e-005 68.8428 3.50346 0 0 -0 0 0 -0 0 0 -0 0 0 -0 0 0 -0 0 0 -0 0 0 -0 0 0 -0 0 0 -0 0 0 -0 0 0 -0 0 0 -0 0 0 -0 0 0 -0 -0.0146107 -8.87603e-005 -2.63497e-007 2.99804e-018 -2.42657e-020 -1.42182e-022 0 0 -0 -0.0187562 -0.001176 5.858e-005 5.06224e-018 3.88251e-019 1.21329e-020 0 0 -0 -0.012269 -0.00324817 0.000675346 -1.74678e-018 3.88251e-019 -0 0 0 -0 0 0 -0 0 0 -0 0 0 -0 0 0 -0 0 0 -0 0 0 -0 0 0 -0 0 0 -0 0 0 -0 0 0 -0 0.0149955 -9.10982e-005 2.64101e-007 -9.69331e-018 1.21329e-020 -4.7394e-023 0 0 -0 0.0189956 -0.00119102 -5.96516e-005 -5.41541e-019 0 2.42657e-020 0 0 -0 0.0122698 -0.00324857 -0.000673756 -2.00796e-019 0 -1.94126e-019 0 0 -0 0 0 -0 0 0 -0 3.39842 1.33031 -0.0637918 -5.65207e-008 0.834868 -0.000436188 -3.39935 -2.16518 -0.0642563 -8.89002e-024 -1.18485e-023 -1.48106e-024 -3.39844 1.35642 0.0640283 -3.18788e-007 0.782166 -0.000588827 3.39931 -2.13858 0.0634662 1.1399e-023 0 -0 
14.7015 42.4253 6.52212 -0 -24.7609 -0 -0.0243522 1.61142 -0.0409625 -0.0475799 3.22284 -0.0812877 -0.0475799 3.22284 -0.0812877 3.72264e-007 1.87053 1.3821e-006 -6.05371e-009 0.756454 -5.46328e-008 0.625403 -3.24739 1.02233 -19.0603 2.35342 7.68784 4.63705 10.0382 -11.3026 -2.81041 4.11031 -13.9764 -1.09332e-015 2.78299e-015 3.18055e-015 3.37934e-015 2.38542e-015 -0 4.47266e-015 1.19271e-015 -3.18055e-015 -1.09332e-015 2.78299e-015 3.18055e-015 -0.0146362 -8.90552e-005 -1.32465e-006 3.97569e-016 -1.19271e-015 6.36111e-015 -1.09332e-015 2.78299e-015 3.18055e-015 -0.0187558 -0.00117645 6.0632e-005 -5.96354e-016 -3.97569e-016 -3.18055e-015 -1.09332e-015 2.78299e-015 3.18055e-015 -0.0123489 -0.00326901 0.000680366 -6.95746e-016 7.95139e-016 -6.36111e-015 -1.09332e-015 2.78299e-015 3.18055e-015 3.37934e-015 2.38542e-015 -0 4.47266e-015 1.19271e-015 -3.18055e-015 -6.00959 7.4108 -5.88119 24.251 1.60543 -9.62327 -7.69278 7.99053 23.9934 2.12486 3.73678 13.9707 2.5842e-015 7.95139e-016 -0 -1.11904e-008 -5.17207e-008 6.85974e-009 3.18055e-015 -2.38542e-015 -3.18055e-015 2.5842e-015 7.95139e-016 -0 0.0149475 -9.11405e-005 -1.8011e-008 -1.59028e-015 -1.19271e-015 -3.18055e-015 2.5842e-015 7.95139e-016 -0 0.0189664 -0.00118958 -5.99744e-005 -4.77083e-015 -1.19271e-015 3.18055e-015 2.5842e-015 7.95139e-016 -0 0.0120903 -0.00320052 -0.000667743 3.18055e-015 3.97569e-016 -9.54166e-015 2.5842e-015 7.95139e-016 -0 -1.11904e-008 -5.17207e-008 6.85974e-009 3.18055e-015 -2.38542e-015 -3.18055e-015 -15.7229 -23.1285 -13.8241 1.02119 43.1367 -3.72062 -9.27835 15.1315 20.3841 8.34064e-007 -7.3262e-009 2.16972e-007 12.3352 -10.6664 -8.99821 -2.09263 9.51537 0.403586 6.20284 0.745521 14.1117 -1.63909e-006 1.32667e-007 3.9008e-007 
29.3897 16.6413 8.52471 -0 -49.5218 -0 -0.0390241 3.2227 -0.0863179 -0.073351 6.44546 -0.17084 -0.073351 6.44547 -0.17084 -2.74495e-007 3.74117 1.84e-007 -5.55152e-009 1.51292 -7.04126e-008 1.36735 -6.49157 2.05456 -38.7464 4.5794 15.413 13.3283 18.8803 -23.5945 -3.68125 7.48137 -28.1399 -1.98785e-015 -2.48481e-015 6.36111e-015 -2.5842e-015 -2.98177e-015 9.54166e-015 -3.97569e-016 9.93923e-017 9.54166e-015 -1.98785e-015 -2.48481e-015 6.36111e-015 -0.0146339 -8.88663e-005 -4.58129e-006 3.37934e-015 -1.2921e-015 -0 -1.98785e-015 -2.48481e-015 6.36111e-015 -0.0187342 -0.001175 5.93848e-005 -3.97569e-016 8.15017e-015 -3.18055e-015 -1.98785e-015 -2.48481e-015 6.36111e-015 -0.0122305 -0.00323731 0.00067104 9.93923e-016 -4.57205e-015 -6.36111e-015 -1.98785e-015 -2.48481e-015 6.36111e-015 -2.5842e-015 -2.98177e-015 9.54166e-015 -3.97569e-016 9.93923e-017 9.54166e-015 -10.4626 14.5847 -12.0579 49.0319 3.07462 -19.2677 -21.3668 11.7036 48.8366 2.48943 6.8023 28.096 -1.27218e-007 -5.50946e-008 3.13521e-006 1.48187e-006 -7.65413e-007 -1.27744e-007 2.55488e-007 6.85842e-007 2.96375e-006 -1.27218e-007 -5.50946e-008 3.13521e-006 0.0150311 -9.08231e-005 1.73835e-007 1.80607e-008 3.09532e-007 5.41486e-008 -1.27218e-007 -5.50946e-008 3.13521e-006 0.0189594 -0.00118886 -6.51832e-005 2.55265e-007 6.86348e-007 2.96363e-006 -1.27218e-007 -5.50946e-008 3.13521e-006 0.0122325 -0.00323704 -0.00068068 2.55404e-007 6.86203e-007 2.96367e-006 -1.27218e-007 -5.50946e-008 3.13521e-006 1.48187e-006 -7.65413e-007 -1.27744e-007 2.55488e-007 6.85842e-007 2.96375e-006 -48.5816 -42.3509 -35.1995 17.1048 82.4987 -20.5243 -28.2667 26.8774 43.6208 -6.84455e-008 -2.79596e-008 4.20325e-007 24.2773 -20.9184 -19.1093 -4.01107 16.5478 0.616597 7.85278 4.03474 28.1393 -1.44e-006 3.32335e-007 7.55106e-007 
39.6287 -1.2305 9.24397 -0 -67.0038 -0 -0.0431565 4.35901 -0.12034 -0.0774378 8.71812 -0.238415 -0.0774378 8.71814 -0.238415 -2.82679e-007 4.99723 7.29873e-008 3.44196e-008 1.9987 -6.09965e-008 2.0307 -8.70348 2.82595 -52.9344 5.98392 20.8723 21.8683 23.6336 -33.2476 -3.40934 9.09613 -38.1176 1.65521e-032 5.96354e-016 -1.59028e-015 -3.97569e-016 9.44227e-016 -0 -9.93923e-016 1.2921e-015 -0 1.65521e-032 5.96354e-016 -1.59028e-015 -0.0145961 -8.66997e-005 2.42087e-006 1.39149e-015 5.41688e-015 1.59028e-015 1.65521e-032 5.96354e-016 -1.59028e-015 -0.0187851 -0.00117683 5.59243e-005 9.93923e-016 5.2181e-015 3.18055e-015 1.65521e-032 5.96354e-016 -1.59028e-015 -0.0122512 -0.00323601 0.000664645 -1.98785e-016 1.14798e-014 -6.36111e-015 1.65521e-032 5.96354e-016 -1.59028e-015 -3.97569e-016 9.44227e-016 -0 -9.93923e-016 1.2921e-015 -0 -12.7461 19.3777 -16.6827 66.7391 3.93096 -26.0793 -32.6589 10.0475 66.1045 1.9603 8.26785 38.054 5.24151e-031 -3.77691e-015 7.95139e-015 -7.95139e-016 -6.65929e-015 6.36111e-015 -3.97569e-016 -3.42904e-015 4.77083e-015 5.24151e-031 -3.77691e-015 7.95139e-015 0.0149925 -9.29986e-005 -7.91256e-006 -7.95139e-016 -1.64991e-014 -1.59028e-015 5.24151e-031 -3.77691e-015 7.95139e-015 0.018995 -0.00119231 -5.13791e-005 -6.89673e-032 2.48481e-015 1.59028e-015 5.24151e-031 -3.77691e-015 7.95139e-015 0.0122771 -0.00324761 -0.000675095 1.56778e-007 1.40092e-007 9.30332e-007 5.24151e-031 -3.77691e-015 7.95139e-015 -7.95139e-016 -6.65929e-015 6.36111e-015 -3.97569e-016 -3.42904e-015 4.77083e-015 -82.3394 -49.2902 -58.2793 171.482 69.6049 -175.855 -47.141 27.4498 61.5505 -1.58717e-015 -6.36111e-015 9.31803e-017 29.7329 -27.0885 -27.4406 -4.8057 22.506 0.595952 8.31199 5.22066 37.9778 4.41391e-032 1.59028e-015 -1.59028e-015 
